<svg width="1524" height="1301" viewBox="0 0 1524 1301" fill="none" xmlns="http://www.w3.org/2000/svg">
<g clip-path="url(#clip0_1361_3861)">
<path d="M527.662 549.408H539.368H554.286H568.746H583.665H595.37H610.289H624.748H635.306H651.372L661.93 549.637H680.751H691.079H707.604H717.474H736.753H746.622H763.607H773.246H792.985L783.116 532.425L778.296 524.164H761.082H748.918H731.933H722.064H705.309H692.915H676.16H666.062H649.536H636.683H624.519H610.059H597.895H580.681H568.516H554.057H542.122H524.678H520.547L506.087 549.408H512.514H527.662Z" fill="#00B451"/>
<path d="M862.299 669.892H846.004H833.151H816.855L806.297 669.663H790.231H776.919H761.082H750.295H734.458H720.916H705.309H694.292H678.685H664.914H649.536H638.06H622.912H608.912H593.763H582.058H567.139H552.68H542.122H526.056H515.498H496.677H486.119H470.053H459.495H444.806H438.15L423.69 694.907H482.218H491.169H503.792H517.793H530.416H543.04H559.565H569.893H586.189H599.042H611.207H625.896H637.831L655.274 695.136H666.98H681.898H693.604H711.277H722.752H737.901H749.377H767.279H778.525H794.133H805.15H823.281H834.298H850.135H860.922H876.989L867.578 678.613L862.299 669.892Z" fill="#00B451"/>
<path d="M472.807 646.484H483.365H499.431H512.743H528.81H539.367H555.204H568.746H580.222H595.37H606.846H624.748H635.994H651.602H662.619H680.75H691.767H707.604L718.391 646.714H736.982H747.54H763.607H774.164H792.985H803.313H819.609H829.937H848.987L839.347 629.961L834.298 621.24H817.543H804.92H788.394H778.296H762H748.917H732.851H722.293H706.227H692.915H677.078H666.061H650.454H636.913H621.305H610.059H594.681H580.681H569.664L554.057 621.01H543.04H524.678H513.661H498.054H487.037H468.676H465.463L451.232 646.484H456.511H472.807Z" fill="#00B451"/>
<path d="M783.804 243.034L775.082 258.41L769.344 268.508L762 281.589L756.032 291.916L747.54 307.063L741.573 317.619L734.458 330.012L728.261 340.798L719.998 355.486L713.801 366.502L706.915 378.665L700.489 389.91L692.685 403.909L686.029 415.613L679.603 427.088L672.947 438.792L665.143 452.562L658.258 464.495L652.061 475.741L645.175 487.904L637.601 500.985H652.749H662.619H679.373H689.243H708.752H718.391L726.884 486.068L732.851 475.741L741.343 460.594L745.934 452.562L754.655 437.186L760.393 427.088L769.115 411.482L773.476 404.139L782.427 388.074L787.706 378.665L796.887 362.6L800.788 355.486L810.199 339.192L815.248 330.242L824.658 313.489L828.331 307.063L854.266 264.377L841.184 241.887L817.084 281.589L813.412 288.015L802.625 307.063L798.952 313.718L789.542 330.242L785.64 337.126L775.082 355.486L771.181 362.6L762 378.665L757.869 386.009L747.77 404.139L743.409 411.712L734.687 427.088L730.097 434.891L720.228 452.562L715.637 460.594L707.145 475.741L702.555 484.002L692.685 500.985H683.046H666.291L674.553 486.297L680.521 475.741L689.013 460.824L693.603 452.562L702.325 437.415L708.063 427.088L716.785 411.712L721.146 403.909L729.867 388.533L735.605 378.665L744.556 362.83L748.688 355.486L757.639 339.421L762.918 330.012L772.328 313.718L776 307.063L785.411 290.539L790.46 281.589L799.87 264.836L803.543 258.41L827.642 218.708L813.182 193.922L789.312 233.166L783.804 243.034Z" fill="#00B451"/>
<path d="M745.016 500.985H764.984L754.885 483.773L745.016 500.985Z" fill="#00B451"/>
<path d="M555.204 500.985H567.369H581.828H596.747H611.206L617.174 490.198L625.437 475.511L631.634 464.495L638.519 452.561L644.946 441.316L652.979 427.088L659.405 415.613L666.061 403.909L672.717 392.205L680.291 378.664L687.177 366.731L693.603 355.486L700.489 343.322L707.834 330.012L714.949 317.619L720.916 307.062L728.261 294.44L735.376 281.589L742.72 268.737L748.458 258.41L755.803 245.329L762.918 233.165L770.492 219.625L776.001 209.987L799.641 170.743L786.558 148.253L762.459 188.185L759.016 193.922L750.065 209.987L744.556 219.625L736.982 233.165L731.244 243.034L722.523 258.41L716.785 268.737L709.44 281.589L703.473 291.916L695.21 307.062L689.013 317.619L681.898 330.012L675.931 341.027L667.668 355.486L661.241 366.501L654.585 378.664L648.159 389.91L640.126 403.909L633.699 415.613L627.043 427.088L620.387 439.021L612.813 452.332L605.928 464.495L599.501 475.511L592.616 487.903L585.271 500.985H570.811H558.647L564.614 490.198L572.877 475.511L579.074 464.725L586.189 452.332L592.386 441.316L600.419 427.088L606.846 415.613L613.502 403.909L620.158 392.205L627.961 378.664L634.617 366.731L641.044 355.486L647.929 343.322L655.503 330.012L662.389 317.619L668.586 306.833L675.701 294.44L682.816 281.589L690.161 268.737L695.899 258.41L703.243 245.329L710.358 233.165L717.932 219.855L723.441 209.987L731.015 196.446L735.835 188.185L745.704 170.743L748.917 165.006L773.017 125.074L760.393 103.272L738.13 139.532L731.244 151.925L723.67 165.006L716.785 177.628L710.588 188.185L703.473 200.807L698.423 209.987L689.013 226.51L685.341 232.936L675.701 249.918L670.881 258.41L661.241 275.392L657.799 281.589L647.929 298.801L643.339 306.833L633.47 324.504L630.256 330.012L620.158 347.683L616.026 355.486L605.698 373.386L602.944 378.664L592.616 396.794L588.484 403.909L577.926 422.498L575.402 427.088L564.844 445.677L560.942 452.332L550.384 471.38L547.86 475.511L537.072 494.788L533.629 500.985H540.515H555.204Z" fill="#00B451"/>
<path d="M500.12 597.831H511.366H526.744H540.744H556.122L567.368 598.061H582.746H596.747H607.764H623.371H634.388H652.749H663.536H679.603H690.161H708.752H719.309H735.605H745.933H764.984H775.082H791.608H801.477H820.986L811.117 581.078L806.297 572.816H789.312H776.918H760.164H750.294L733.539 572.587H720.916H704.391H694.292H677.996H664.914H648.847H638.06H622.223H608.682H597.206H582.058H570.582H552.679H541.203H526.055H514.579H496.677H493.005L478.545 597.831H484.512H500.12Z" fill="#00B451"/>
<path d="M1089.06 669.892L1080.11 654.746L1075.75 646.713L1065.42 629.272L1061.06 621.469L1052.11 606.093L1047.52 598.29L1037.42 580.39L1032.83 572.816L1023.88 557.211L1019.52 549.638L1009.19 531.737L1004.83 524.393L995.649 508.558L991.518 501.214L980.96 483.084L976.829 475.741L967.648 459.676L963.517 452.562L952.729 434.202L948.828 427.317L939.417 411.023L935.516 404.139L924.728 385.549L920.826 378.665L911.187 362.371L907.285 355.486L867.578 287.556L852.889 311.882L870.103 341.487L875.382 350.896L884.792 366.961L888.923 374.075L898.104 390.139L903.613 399.549L912.793 415.613L916.925 422.727L926.105 438.563L931.614 448.201L940.795 464.036L945.155 471.61L954.107 487.215L959.845 497.083L968.796 512.689L973.386 520.262L982.337 535.638L988.075 545.736L997.026 561.112L1001.39 568.915L1010.34 584.291L1016.08 594.389L1025.03 609.765L1029.62 617.797L1038.34 632.714L1044.31 643.271L1075.29 695.366H1083.78H1103.75L1093.65 677.925L1089.06 669.892Z" fill="#00B451"/>
<path d="M762 0L333.031 743.101H1190.97L762 0ZM1117.06 718.545H383.984L386.049 714.873L411.526 668.974L414.739 663.237L424.608 646.025L438.839 620.551L440.445 618.027L451.921 597.372L466.381 572.128L468.217 568.915L479.463 548.949L507.005 500.526L509.071 496.624L521.236 475.052L523.531 470.921L534.318 451.873L536.843 447.742L548.778 426.629L551.302 422.039L561.86 403.45L564.614 398.631L576.32 377.976L579.074 373.157L589.402 355.027L592.386 349.748L603.633 329.553L606.846 324.045L616.945 306.374L619.928 300.866L631.175 281.13L634.617 275.163L644.257 257.951L647.7 251.755L658.717 232.477L662.389 226.051L671.799 209.528L675.472 202.872L684.193 187.726L690.161 177.169L697.276 164.547L703.243 153.761L711.506 139.532L717.474 128.746L724.589 116.353L747.54 80.0933L761.311 57.1439L774.624 80.0933L787.477 101.895L800.789 124.845L814.101 147.794L827.642 170.743L842.102 195.529L855.414 218.478L868.496 241.427L878.136 258.18L881.808 264.606L919.909 330.012L924.958 338.733L934.598 355.256L938.27 361.912L947.91 378.435L953.189 387.385L962.599 403.909L966.501 410.794L975.911 427.088L981.19 436.268L990.6 452.332L994.731 459.447L1003.91 475.511L1009.42 484.92L1018.6 500.985L1022.73 508.099L1032.14 524.164L1037.65 533.573L1046.83 549.638L1050.96 556.981L1060.14 572.587L1065.65 582.455L1074.83 598.061L1079.19 605.634L1088.15 621.24L1093.88 631.108L1102.83 646.713L1107.42 654.287L1116.15 669.663L1122.11 679.761L1130.84 695.137L1135.43 703.169L1144.38 718.315H1117.06V718.545Z" fill="#00B451"/>
<path d="M1011.72 632.714L1002.99 617.797L998.174 609.765L988.305 592.324L983.485 584.291L974.763 569.145L970.173 561.112L960.074 543.671L955.484 535.639L946.532 520.492L942.172 512.689L931.843 494.789L927.482 487.215L918.531 471.61L914.17 464.037L903.842 446.136L899.481 438.563L890.3 422.957L885.94 415.613L875.611 397.483L871.48 390.14L862.07 374.075L857.938 366.961L839.347 334.602L837.97 336.897L827.413 355.486L823.511 362.371L832.921 378.665L838.2 387.845L847.61 404.139L851.741 411.253L860.922 427.318L866.431 436.727L875.611 452.562L879.972 459.906L888.923 475.741L894.661 485.379L903.842 501.215L907.973 508.558L917.154 524.393L922.663 534.032L931.843 549.638L936.204 557.441L945.155 572.817L950.893 582.914L959.844 598.29L964.435 606.093L973.157 621.469L979.124 631.567L987.846 646.714L992.436 654.746L1001.16 669.892L1007.35 680.22L1015.85 695.366H1018.37H1028.01H1047.75H1048.67L1016.31 640.976L1011.72 632.714Z" fill="#00B451"/>
<path d="M974.534 669.892L965.812 654.975L961.222 646.713L951.123 629.501L946.533 621.239L937.811 606.093L933.221 598.29L922.892 580.619L918.531 572.816L909.58 557.44L904.99 549.637L894.891 531.966L890.301 524.164L881.35 508.787L876.989 501.214L866.66 483.314L862.3 475.74L853.119 460.135L848.988 452.561L838.43 434.432L834.298 427.317L825.118 411.253L820.986 404.138L810.428 385.779L799.871 404.138L795.739 411.482L804.92 427.088L810.428 436.956L819.609 452.561L823.97 460.135L832.921 475.74L838.659 485.609L847.61 501.214L852.201 508.787L861.152 524.164L866.89 534.261L875.841 549.637L880.202 557.67L889.153 572.816L895.121 583.143L903.842 598.29L908.433 606.322L917.154 621.239L923.122 631.796L931.843 646.713L936.663 654.975L945.156 669.892L951.353 680.449L959.845 695.366H962.14H972.239H989.223L979.354 678.154L974.534 669.892Z" fill="#00B451"/>
<path d="M918.532 669.892L910.039 655.205L904.99 646.713L895.35 629.731L890.301 621.24L881.809 606.552L876.989 598.29L867.119 581.078L862.3 572.816L853.578 557.67L848.988 549.637L838.889 532.196L834.298 524.164L825.577 509.017L820.986 501.214L810.658 483.543L806.297 475.74L797.346 460.135L792.985 452.562L782.657 434.661L772.558 452.562L768.197 460.364L776.919 475.74L782.886 485.838L791.608 501.214L796.198 509.017L804.92 524.164L810.888 534.72L819.609 549.637L824.429 557.899L833.151 572.816L839.118 583.373L847.61 598.29L852.66 606.552L861.152 621.24L867.349 632.026L875.841 646.713L880.661 655.205L889.153 669.892L895.58 680.678L903.842 695.137H906.138H916.695H933.221L923.351 678.383L918.532 669.892Z" fill="#00B451"/>
<path d="M245.584 880.108H280.93V1132.55H245.814L245.584 880.108Z" fill="#062D3D"/>
<path d="M341.523 880.109H370.442C379.84 879.934 389.087 882.484 397.066 887.452C406.156 894.153 412.902 903.549 416.346 914.303L485.201 1086.42C486.152 1089.26 487.72 1091.84 489.792 1094C490.384 1094.81 491.195 1095.43 492.13 1095.8C493.065 1096.16 494.085 1096.26 495.071 1096.06V880.109H530.646V1132.55H503.563C493.349 1132.97 483.287 1129.97 474.972 1124.03C466.657 1118.08 460.564 1109.53 457.659 1099.73L387.886 927.155C385.361 920.27 382.148 916.828 377.557 916.828V1132.78H341.982L341.523 880.109Z" fill="#062D3D"/>
<path d="M627.732 922.106C630.373 910.722 636.275 900.355 644.716 892.272C649.405 888.156 654.859 885.004 660.766 882.996C666.673 880.988 672.918 880.162 679.144 880.567H708.293L771.869 1133.01H738.13C734.917 1123.6 731.933 1114.19 729.408 1104.78L720.916 1076.1H626.584L611.665 1133.01H573.795L627.732 922.106ZM634.617 1042.82H714.03L681.209 911.779C678.679 911.678 676.169 912.264 673.946 913.477C671.723 914.689 669.871 916.482 668.586 918.663C665.311 923.71 662.979 929.309 661.7 935.187L634.617 1042.82Z" fill="#062D3D"/>
<path d="M832.232 880.108L874.923 1101.57C880.661 1101.57 884.563 1096.98 886.169 1088.03L921.056 917.975C922.701 909.256 925.805 900.877 930.237 893.19C931.97 890.16 934.532 887.687 937.622 886.061C940.711 884.435 944.2 883.723 947.68 884.01H968.796L1013.55 1101.57C1019.75 1101.57 1023.42 1096.52 1024.8 1088.72L1063.82 882.174H1101.69L1055.78 1105.01C1055.26 1109.63 1053.74 1114.07 1051.32 1118.03C1048.9 1122 1045.65 1125.39 1041.78 1127.96C1033.42 1132.53 1023.99 1134.75 1014.47 1134.39H989.911L949.516 932.662L916.006 1101.57C914.823 1110.43 910.508 1118.57 903.842 1124.52C895.898 1130.58 886.045 1133.59 876.07 1133.01H841.872L789.083 880.567L832.232 880.108Z" fill="#062D3D"/>
<path d="M462.02 1131.63H459.954C451.228 1124.73 444.626 1115.5 440.904 1105.01L367.229 923.942C365.24 918.434 362.944 915.68 360.343 915.68C359.41 915.622 358.533 915.209 357.894 914.527C357.254 913.844 356.899 912.944 356.9 912.008C356.899 911.073 357.254 910.172 357.894 909.49C358.533 908.807 359.41 908.395 360.343 908.336C366.311 908.336 371.13 912.697 374.114 921.418L447.56 1101.57C450.814 1110.61 456.54 1118.56 464.085 1124.52C464.716 1125.16 465.069 1126.03 465.069 1126.93C465.069 1127.83 464.716 1128.7 464.085 1129.34C463.943 1129.86 463.683 1130.33 463.324 1130.73C462.966 1131.13 462.519 1131.44 462.02 1131.63V1131.63Z" fill="#062D3D"/>
<path d="M1334.19 880.109H1363.11C1372.51 879.934 1381.75 882.484 1389.73 887.452C1398.82 894.108 1405.5 903.529 1408.78 914.303L1477.64 1086.42C1478.59 1089.26 1480.16 1091.84 1482.23 1094C1482.82 1094.81 1483.63 1095.43 1484.57 1095.8C1485.5 1096.16 1486.52 1096.26 1487.51 1096.06V880.109H1523.08V1132.55H1496.23C1486.21 1132.72 1476.41 1129.6 1468.33 1123.67C1460.25 1117.75 1454.33 1109.34 1451.47 1099.73L1380.55 927.155C1378.26 921.035 1374.81 917.975 1370.22 917.975V1133.93H1334.65L1334.19 880.109Z" fill="#062D3D"/>
<path d="M1454.69 1131.63C1454.02 1131.86 1453.29 1131.86 1452.62 1131.63C1443.75 1124.81 1437.06 1115.56 1433.34 1105.01L1358.75 923.942C1356.61 918.434 1354.31 915.68 1351.86 915.68C1350.89 915.68 1349.95 915.293 1349.26 914.605C1348.58 913.916 1348.19 912.982 1348.19 912.008C1348.19 911.034 1348.58 910.1 1349.26 909.412C1349.95 908.723 1350.89 908.336 1351.86 908.336C1357.83 908.336 1362.42 912.697 1365.63 921.418L1440 1101.57C1443.41 1110.59 1449.2 1118.52 1456.75 1124.52C1457.09 1124.82 1457.37 1125.19 1457.55 1125.61C1457.74 1126.02 1457.84 1126.47 1457.84 1126.93C1457.84 1127.39 1457.74 1127.84 1457.55 1128.25C1457.37 1128.67 1457.09 1129.04 1456.75 1129.34C1456.65 1129.87 1456.4 1130.37 1456.04 1130.77C1455.67 1131.18 1455.21 1131.48 1454.69 1131.63V1131.63Z" fill="#062D3D"/>
<path d="M231.584 1132.78C230.61 1132.78 229.676 1132.39 228.987 1131.71C228.299 1131.02 227.912 1130.08 227.912 1129.11V892.272C227.91 891.336 228.265 890.435 228.905 889.753C229.545 889.071 230.421 888.658 231.354 888.6C232.328 888.6 233.262 888.986 233.951 889.675C234.64 890.364 235.027 891.298 235.027 892.272V1129.11C235.027 1130.08 234.64 1131.02 233.951 1131.71C233.262 1132.39 232.328 1132.78 231.354 1132.78H231.584Z" fill="#062D3D"/>
<path d="M3.90181 1132.78C3.40061 1132.81 2.89829 1132.74 2.42591 1132.57C1.95353 1132.4 1.52113 1132.13 1.15543 1131.79C0.789738 1131.45 0.498523 1131.03 0.299789 1130.57C0.101055 1130.11 -0.000974839 1129.61 7.01966e-06 1129.11V892.272C7.01966e-06 891.298 0.386908 890.364 1.0756 889.675C1.76428 888.986 2.69834 888.6 3.6723 888.6V888.6C4.60593 888.658 5.48206 889.071 6.12186 889.753C6.76166 890.435 7.1169 891.336 7.11507 892.272V1129.11C7.11507 1130.08 6.72817 1131.02 6.03948 1131.71C5.35079 1132.39 4.41673 1132.78 3.44278 1132.78H3.90181Z" fill="#062D3D"/>
<path d="M1321.11 1132.78C1320.13 1132.78 1319.2 1132.39 1318.51 1131.71C1317.82 1131.02 1317.43 1130.08 1317.43 1129.11V892.272C1317.43 891.336 1317.79 890.435 1318.43 889.753C1319.07 889.071 1319.94 888.658 1320.88 888.6C1321.85 888.6 1322.78 888.986 1323.47 889.675C1324.16 890.364 1324.55 891.298 1324.55 892.272V1129.11C1324.55 1130.04 1324.2 1130.95 1323.56 1131.63C1322.92 1132.31 1322.04 1132.72 1321.11 1132.78V1132.78Z" fill="#062D3D"/>
<path d="M327.981 1132.78C327.007 1132.78 326.073 1132.39 325.385 1131.71C324.696 1131.02 324.309 1130.08 324.309 1129.11V892.272C324.307 891.336 324.663 890.435 325.302 889.753C325.942 889.071 326.818 888.658 327.752 888.6C328.726 888.6 329.66 888.986 330.349 889.675C331.037 890.364 331.424 891.298 331.424 892.272V1129.11C331.424 1130.08 331.037 1131.02 330.349 1131.71C329.66 1132.39 328.726 1132.78 327.752 1132.78H327.981Z" fill="#062D3D"/>
<path d="M697.276 1036.39C696.492 1036.47 695.709 1036.25 695.075 1035.79C694.44 1035.32 693.998 1034.64 693.833 1033.87L663.537 912.697C663.267 912.209 663.112 911.665 663.083 911.108C663.054 910.551 663.153 909.995 663.372 909.481C663.59 908.968 663.923 908.511 664.344 908.146C664.766 907.78 665.265 907.516 665.804 907.372C666.343 907.228 666.908 907.209 667.456 907.316C668.003 907.424 668.519 907.654 668.964 907.99C669.409 908.327 669.772 908.76 670.025 909.257C670.277 909.755 670.413 910.303 670.422 910.861L700.719 1032.72C700.933 1033.63 700.792 1034.59 700.322 1035.4C699.853 1036.21 699.092 1036.81 698.194 1037.08L697.276 1036.39Z" fill="#062D3D"/>
<path d="M860.693 1103.86C859.719 1103.86 858.785 1103.48 858.096 1102.79C857.407 1102.1 857.021 1101.17 857.021 1100.19C857.021 1099.22 857.407 1098.29 858.096 1097.6C858.785 1096.91 859.719 1096.52 860.693 1096.52C862.07 1096.52 866.431 1096.52 868.267 1085.51L903.383 910.402C905.166 901.106 908.339 892.132 912.793 883.78C913.475 883.135 914.379 882.775 915.318 882.775C916.257 882.775 917.161 883.135 917.843 883.78C918.424 884.449 918.744 885.304 918.744 886.19C918.744 887.076 918.424 887.931 917.843 888.6C913.614 896.254 910.668 904.549 909.121 913.156L874.234 1088.03C872.169 1101.57 865.972 1103.86 860.693 1103.86Z" fill="#062D3D"/>
<path d="M722.064 1131.63C721.29 1131.66 720.529 1131.43 719.904 1130.97C719.279 1130.51 718.827 1129.86 718.621 1129.11C716.096 1121.54 714.031 1114.65 711.506 1106.16V1101.57C709.899 1095.6 709.44 1094.46 706.916 1086.19C706.701 1085.28 706.843 1084.32 707.312 1083.51C707.781 1082.7 708.543 1082.1 709.44 1081.83C709.877 1081.69 710.338 1081.64 710.795 1081.68C711.253 1081.72 711.698 1081.85 712.104 1082.06C712.511 1082.28 712.87 1082.57 713.162 1082.92C713.453 1083.28 713.67 1083.69 713.801 1084.13L718.392 1099.73V1103.18C720.916 1112.13 722.982 1119.01 725.507 1126.13C725.744 1127.04 725.642 1128.01 725.22 1128.85C724.798 1129.69 724.084 1130.36 723.211 1130.72L722.064 1131.63Z" fill="#062D3D"/>
<path d="M1155.62 922.106C1158.19 910.744 1164.01 900.376 1172.38 892.272C1181.89 884.025 1194.24 879.825 1206.81 880.567H1235.95L1299.76 1133.01H1265.79C1262.58 1123.6 1259.82 1114.19 1257.07 1104.78C1254.32 1095.37 1251.56 1085.96 1248.81 1076.1H1154.48L1139.56 1133.01H1101.69L1155.62 922.106ZM1162.51 1042.82H1241.92L1209.1 911.779C1206.54 911.66 1203.99 912.238 1201.73 913.45C1199.46 914.662 1197.57 916.463 1196.25 918.663C1193.16 923.808 1190.84 929.374 1189.36 935.187L1162.51 1042.82Z" fill="#062D3D"/>
<path d="M1224.94 1036.39C1224.16 1036.42 1223.4 1036.19 1222.78 1035.73C1222.15 1035.27 1221.7 1034.62 1221.5 1033.87L1191.2 912.696C1190.99 911.754 1191.17 910.767 1191.68 909.951C1192.2 909.135 1193.01 908.555 1193.95 908.336C1194.86 908.121 1195.82 908.263 1196.64 908.732C1197.45 909.202 1198.05 909.963 1198.31 910.86L1228.38 1032.72C1228.52 1033.17 1228.56 1033.65 1228.51 1034.12C1228.45 1034.59 1228.3 1035.04 1228.07 1035.45C1227.83 1035.86 1227.51 1036.22 1227.13 1036.5C1226.75 1036.78 1226.32 1036.98 1225.86 1037.08L1224.94 1036.39Z" fill="#062D3D"/>
<path d="M1249.96 1131.63C1249.18 1131.66 1248.42 1131.43 1247.8 1130.97C1247.17 1130.51 1246.72 1129.86 1246.51 1129.11C1243.99 1121.54 1241.92 1114.65 1239.4 1106.16V1101.57L1234.81 1085.96C1234.67 1085.51 1234.63 1085.04 1234.68 1084.57C1234.73 1084.1 1234.88 1083.64 1235.12 1083.23C1235.36 1082.83 1235.68 1082.47 1236.06 1082.19C1236.44 1081.91 1236.87 1081.71 1237.33 1081.6C1237.77 1081.46 1238.23 1081.41 1238.69 1081.45C1239.14 1081.49 1239.59 1081.62 1240 1081.83C1240.4 1082.05 1240.76 1082.34 1241.05 1082.69C1241.34 1083.05 1241.56 1083.46 1241.69 1083.9L1246.28 1099.73V1102.95C1248.81 1111.9 1250.87 1118.78 1253.17 1125.9C1253.35 1126.35 1253.43 1126.83 1253.41 1127.31C1253.39 1127.8 1253.26 1128.27 1253.05 1128.7C1252.83 1129.14 1252.53 1129.52 1252.15 1129.83C1251.78 1130.13 1251.34 1130.36 1250.87 1130.49L1249.96 1131.63Z" fill="#062D3D"/>
<path d="M999.322 1103.86C998.444 1103.93 997.574 1103.66 996.892 1103.1C996.209 1102.55 995.764 1101.75 995.649 1100.88C995.585 1100.4 995.618 1099.91 995.745 1099.44C995.872 1098.97 996.092 1098.53 996.391 1098.14C996.69 1097.76 997.062 1097.44 997.487 1097.2C997.911 1096.96 998.379 1096.81 998.862 1096.75C1001.62 1096.75 1005.52 1095.14 1007.13 1086.88L1045 884.928C1045.08 884.471 1045.25 884.036 1045.5 883.648C1045.76 883.261 1046.09 882.928 1046.47 882.671C1046.86 882.414 1047.29 882.237 1047.75 882.152C1048.21 882.066 1048.67 882.074 1049.13 882.174C1049.6 882.227 1050.06 882.38 1050.48 882.622C1050.89 882.864 1051.25 883.19 1051.53 883.579C1051.81 883.968 1052.01 884.411 1052.11 884.881C1052.21 885.35 1052.21 885.835 1052.11 886.305L1014.01 1088.26C1013.83 1092.11 1012.31 1095.78 1009.71 1098.63C1007.12 1101.48 1003.6 1103.33 999.781 1103.86H999.322Z" fill="#062D3D"/>
<path d="M822.134 1127.96C821.339 1127.94 820.574 1127.66 819.953 1127.16C819.332 1126.66 818.889 1125.98 818.691 1125.21L768.886 890.895C768.713 890.406 768.646 889.886 768.689 889.37C768.732 888.853 768.883 888.351 769.134 887.897C769.385 887.443 769.729 887.048 770.144 886.737C770.558 886.425 771.034 886.205 771.54 886.091C772.046 885.977 772.57 885.971 773.078 886.074C773.586 886.177 774.067 886.386 774.488 886.688C774.909 886.99 775.262 887.378 775.523 887.826C775.784 888.275 775.946 888.773 776.001 889.288L826.265 1124.52C826.407 1125.43 826.202 1126.36 825.692 1127.12C825.182 1127.89 824.404 1128.43 823.511 1128.65L822.134 1127.96Z" fill="#062D3D"/>
<path d="M140.006 982.922C149.201 977.676 156.424 969.563 160.569 959.823C164.714 950.083 165.553 939.253 162.958 928.991C159.501 915.933 152.127 904.248 141.827 895.508C131.527 886.769 118.796 881.394 105.349 880.109C76.8322 878.59 48.2551 878.59 19.7385 880.109V1133.93H134.498C144.163 1134.15 153.774 1132.41 162.752 1128.83C171.731 1125.24 179.894 1119.88 186.752 1113.07C193.61 1106.25 199.022 1098.12 202.663 1089.17C206.304 1080.21 208.1 1070.62 207.943 1060.95C207.943 997.839 140.006 982.922 140.006 982.922ZM104.89 1102.95H52.7891V907.877C70.8039 905.874 89.0388 907.752 106.267 913.385C110.958 916.605 114.857 920.847 117.672 925.791C120.488 930.735 122.145 936.252 122.521 941.929C122.896 947.606 121.98 953.294 119.841 958.566C117.701 963.837 114.394 968.555 110.169 972.365C104.162 978.135 97.7164 983.43 90.8891 988.2C90.8891 988.2 159.745 1013.21 159.745 1060.95C160.663 1095.83 117.972 1102.95 104.89 1102.95Z" fill="#062D3D"/>
<path d="M377.328 1299.62H367.229V1211.27H377.787L377.328 1299.62Z" fill="#062D3D"/>
<path d="M481.988 1299.62H468.676L431.723 1240.64L422.313 1223.2V1237.43V1299.62H412.214V1211.27H425.297L462.249 1270.25L471.66 1287.92V1273.69V1211.27H481.988V1299.62Z" fill="#062D3D"/>
<path d="M577.468 1221.37H546.712V1299.62H535.925V1221.37H504.94V1211.27H577.238L577.468 1221.37Z" fill="#062D3D"/>
<path d="M612.125 1299.62H601.567V1211.27H612.125V1299.62Z" fill="#062D3D"/>
<path d="M765.902 1266.81C766.471 1271.47 765.962 1276.21 764.414 1280.65C762.866 1285.09 760.321 1289.11 756.974 1292.42C753.627 1295.72 749.567 1298.21 745.107 1299.7C740.646 1301.19 735.904 1301.63 731.244 1301C726.585 1301.63 721.843 1301.19 717.382 1299.7C712.922 1298.21 708.862 1295.72 705.515 1292.42C702.168 1289.11 699.623 1285.09 698.075 1280.65C696.527 1276.21 696.018 1271.47 696.587 1266.81V1211.27H707.375V1264.05C707.375 1282.64 714.719 1291.13 730.326 1291.13C745.934 1291.13 753.278 1282.64 753.278 1264.05V1211.27H764.066L765.902 1266.81Z" fill="#062D3D"/>
<path d="M861.381 1221.37H830.626V1299.62H819.838V1221.37H789.083V1211.27H861.381V1221.37Z" fill="#062D3D"/>
<path d="M923.122 1275.3H882.956L873.775 1299.62H862.529L896.957 1211.27H909.58L943.778 1299.62H932.532L923.122 1275.3ZM919.22 1265.2L907.285 1233.76L903.153 1221.6L899.252 1233.53L887.087 1265.2H919.22Z" fill="#062D3D"/>
<path d="M1052.57 1299.62H1042.47V1244.09V1221.14L1014.47 1299.62H1005.29L976.14 1220.91V1243.86V1299.39H966.042V1211.27H982.567L1001.85 1264.97L1008.5 1287.92L1015.39 1264.97L1034.67 1211.04H1051.19L1052.57 1299.62Z" fill="#062D3D"/>
<path d="M1136.57 1275.3H1096.41L1087 1299.62H1075.75L1110.18 1211.27H1123.03L1157.23 1299.62H1145.75L1136.57 1275.3ZM1132.67 1265.2L1120.74 1233.76L1116.61 1221.6L1112.7 1233.53L1100.54 1265.2H1132.67Z" fill="#062D3D"/>
</g>
<defs>
<clipPath id="clip0_1361_3861">
<rect width="1524" height="1301" fill="white"/>
</clipPath>
</defs>
</svg>
